HIERARCHY
ROOT Hips
{
  OFFSET 279.157 85.6768 304.565
  CHANNELS 6 Xposition Yposition Zposition Zrotation Xrotation Yrotation
  JOINT LeftUpLeg
  {
    OFFSET 8.64259 1.95398 -2.38835
    CHANNELS 3 Zrotation Xrotation Yrotation
    JOINT LeftLeg
    {
      OFFSET 43.7702 0 0
      CHANNELS 3 Zrotation Xrotation Yrotation
      JOINT LeftFoot
      {
        OFFSET 40.6238 0 0
        CHANNELS 3 Zrotation Xrotation Yrotation
        JOINT LeftToeBase
        {
          OFFSET 12.7242 0 0
          CHANNELS 3 Zrotation Xrotation Yrotation
          End Site
          {
            OFFSET 0 0 0
          }
        }
      }
    }
  }
  JOINT RightUpLeg
  {
    OFFSET -8.2249 1.95398 -2.59336
    CHANNELS 3 Zrotation Xrotation Yrotation
    JOINT RightLeg
    {
      OFFSET 43.5653 0 0
      CHANNELS 3 Zrotation Xrotation Yrotation
      JOINT RightFoot
      {
        OFFSET 40.6238 0 0
        CHANNELS 3 Zrotation Xrotation Yrotation
        JOINT RightToeBase
        {
          OFFSET 12.7242 0 0
          CHANNELS 3 Zrotation Xrotation Yrotation
          End Site
          {
            OFFSET 0 0 0
          }
        }
      }
    }
  }
  JOINT Spine
  {
    OFFSET 0.165834 0.87714 6.61349
    CHANNELS 3 Zrotation Xrotation Yrotation
    JOINT Spine1
    {
      OFFSET 7.38963 1.71661e-005 0
      CHANNELS 3 Zrotation Xrotation Yrotation
      JOINT Spine2
      {
        OFFSET 11.9445 1.14441e-005 0
        CHANNELS 3 Zrotation Xrotation Yrotation
        JOINT Spine3
        {
          OFFSET 14.7254 4.19617e-005 0
          CHANNELS 3 Zrotation Xrotation Yrotation
          JOINT Spine4
          {
            OFFSET 10.9679 0 0
            CHANNELS 3 Zrotation Xrotation Yrotation
            JOINT RightShoulder
            {
              OFFSET 2.46616 -1.6653 3.69651
              CHANNELS 3 Zrotation Xrotation Yrotation
              JOINT RightArm
              {
                OFFSET 13.0012 0 0
                CHANNELS 3 Zrotation Xrotation Yrotation
                JOINT RightForeArm
                {
                  OFFSET 28.7848 1.52588e-005 0
                  CHANNELS 3 Zrotation Xrotation Yrotation
                  JOINT RightHand
                  {
                    OFFSET 26.5688 1.52588e-005 0
                    CHANNELS 3 Zrotation Xrotation Yrotation
                    End Site
                    {
                      OFFSET 0 0 0
                    }
                  }
                }
              }
            }
            JOINT LeftShoulder
            {
              OFFSET 2.38034 -1.29275 -3.7523
              CHANNELS 3 Zrotation Xrotation Yrotation
              JOINT LeftArm
              {
                OFFSET 16.3182 6.10351e-005 0
                CHANNELS 3 Zrotation Xrotation Yrotation
                JOINT LeftForeArm
                {
                  OFFSET 27.0901 0 0
                  CHANNELS 3 Zrotation Xrotation Yrotation
                  JOINT LeftHand
                  {
                    OFFSET 24.5451 1.52588e-005 0
                    CHANNELS 3 Zrotation Xrotation Yrotation
                    End Site
                    {
                      OFFSET 0 0 0
                    }
                  }
                }
              }
            }
            JOINT Neck
            {
              OFFSET 5.0226 -0.0266342 0
              CHANNELS 3 Zrotation Xrotation Yrotation
              JOINT Head
              {
                OFFSET 6.69364 2.86102e-005 0
                CHANNELS 3 Zrotation Xrotation Yrotation
                End Site
                {
                  OFFSET 0 0 0
                }
              }
            }
          }
        }
      }
    }
  }
}
MOTION
Frames:	14
Frame Time:	0.0416667
16.2943 100.869 -52.6343 -130.214 -78.83 -132.573 -174.943 0.305826 83.3886 -21.6832 -1.30553 -2.73191 74.0755 7.69479 -1.53671 14.5361 -10.9307 7.56904 177.432 16.923 89.311 -46.1361 -7.28935 -3.14828 67.0318 -4.38554 -1.81287 21.5469 1.83577 3.3604 -0.0170841 7.9034 -89.7781 11.0677 0.0689646 0.434926 -0.603286 0.0880352 0.431461 -23.138 -0.0649378 0.435543 -3.12538 -0.0649367 0.435545 89.0718 -29.9702 -108.603 42.3778 -10.8822 -2.32149 3.13588 -22.2083 -14.7566 -24.0805 -0.020664 -10.9696 -89.1989 -51.789 80.2807 -15.3632 8.00992 -22.0795 0.993895 -8.16743 -9.68249 1.54968 -0.223531 -8.33848 1.59007 3.0928 -2.36759 -5.16939 3.40995 0.291102 
15.5692 100.099 -45.502 -148.145 -82.3843 -150.663 -174.961 -3.29029 83.7578 -22.422 3.0287 -1.92615 78.2232 10.0851 -1.4009 14.5616 -11.1769 8.18284 176.298 18.2725 89.6885 -22.9754 -4.81335 -0.529328 61.98 -2.05246 -1.44795 23.9429 1.11945 3.12716 -0.641527 7.93259 -89.8365 11.0113 -1.20127 0.440375 -0.659128 -1.18071 0.492819 -23.1987 -1.27808 0.0589298 -3.18607 -1.27807 0.0589344 89.6249 -31.5048 -106.923 42.2004 -7.77237 3.50298 1.96698 -23.5456 -15.7183 -22.7213 -0.335508 -9.89274 -89.4785 -47.7565 79.0351 -15.0296 6.95384 -31.9955 2.18186 -5.43522 -13.0853 3.07778 -0.378664 -10.4178 1.61609 3.15929 -4.62071 -4.99143 3.76192 2.60999 
14.8628 98.5613 -37.5567 178.135 -83.546 174.297 -174.491 -8.68691 84.1302 -22.6396 6.82968 -1.65641 82.8452 13.0086 -2.36358 16.4156 -10.8842 10.4989 175.214 18.8621 88.4705 -6.11532 0.544966 1.07051 62.2702 -1.89301 -1.4705 24.8629 0.406029 5.67447 -1.08398 7.98967 -89.7356 10.902 -2.03586 0.717932 -0.767605 -2.00229 0.806858 -23.3155 -2.15747 0.0726128 -3.30284 -2.15746 0.0726064 90.0801 -33.1049 -105.469 42.4591 -4.92354 7.83606 3.16454 -20.8651 -12.8345 -22.7237 -0.294888 -9.27524 -90.383 -46.1497 77.274 -13.2805 4.99863 -40.6089 4.21203 1.01511 -14.6359 3.2039 -0.455524 -11.863 1.22046 2.98758 -6.32549 -4.49996 3.82022 3.71242 
14.2051 96.5738 -28.9038 144.033 -82.212 138.876 -173.762 -14.0119 85.368 -23.1689 11.1318 -1.07973 86.0009 15.6649 -2.99685 19.4725 -9.82794 13.2951 174.632 21.5092 86.5372 -5.21958 9.31202 1.38597 64.745 -2.1618 -0.634637 27.1868 -0.0116981 3.81067 -1.38414 7.9977 -89.7364 10.8893 -2.63392 0.772023 -0.779299 -2.59739 0.887261 -23.3359 -2.74409 -0.0558546 -3.32329 -2.74409 -0.0558637 90.748 -33.1828 -104.175 43.3889 -3.56498 10.367 5.39841 -18.2838 -8.21689 -19.4098 -0.216203 -9.56452 -91.6741 -46.8643 75.446 -13.1002 4.63251 -46.3996 5.1255 4.88927 -14.5365 2.14666 -0.392471 -12.0522 2.45224 2.20138 -6.27502 -5.06553 3.07956 4.04259 
13.9016 95.7049 -19.8635 123.563 -79.6242 118.126 -173.219 -15.3183 87.0287 -27.7713 13.7024 0.36065 80.3191 14.0381 0.663717 28.5916 -3.99676 15.6831 172.057 24.4276 84.4546 -13.6316 8.39824 3.37309 58.518 2.06634 -0.118382 22.7313 1.99187 0.710931 -1.46563 8.03658 -89.9595 10.8085 -2.89964 0.351032 -0.859273 -2.88138 0.478411 -23.42 -2.87097 -0.537399 -3.40737 -2.87098 -0.537401 90.4082 -32.6733 -104.993 43.6888 -1.99446 10.271 7.77634 -14.5616 -2.05143 -17.502 -0.210173 -8.89315 -92.9238 -47.3359 73.6608 -14.3863 7.04862 -49.3587 4.12148 8.90574 -10.7972 0.744043 -0.250434 -10.3078 6.82452 1.28953 -3.34878 -6.18207 1.81959 2.91963 
13.5264 95.0376 -11.9532 116.08 -79.5053 111.139 -170.682 -6.9053 90.0774 -44.7143 15.1289 0.0647167 67.3065 5.68385 2.92382 32.6096 -0.84074 14.5618 169.63 30.9239 83.8487 -30.172 3.038 6.26431 59.8472 2.5307 -0.679613 10.8877 5.36967 3.06358 -1.14773 8.31785 -90.2498 10.2366 -2.40092 -0.290939 -1.43217 -2.4114 -0.184932 -23.9827 -2.20243 -0.999385 -3.97001 -2.20244 -0.999402 89.46 -30.6927 -107.555 42.3777 -3.60874 6.27562 8.45426 -13.265 -0.447358 -16.8778 -0.226845 -8.41295 -93.6747 -45.5081 71.9758 -13.3547 9.73148 -53.2213 -0.175855 15.3309 -1.79642 -3.6191 -0.0487896 -8.20377 14.4342 0.672522 -0.536165 -6.87001 0.712399 1.95965 
12.8828 94.1822 -7.41923 109.535 -79.8882 105.587 -164.573 12.2988 95.0862 -68.243 12.5966 -1.43124 57.2399 -1.25006 0.799402 5.9578 -13.4006 0.955854 166.039 34.3962 85.4139 -39.7135 -0.502483 8.05714 63.9166 -1.16842 -2.86315 13.1031 4.27995 4.31435 -0.752549 8.98899 -90.491 8.889 -1.71989 -0.855784 -2.78104 -1.75587 -0.77925 -25.3205 -1.38318 -1.33315 -5.30782 -1.38318 -1.33316 88.0025 -28.5645 -111.335 34.8466 -7.90819 -3.3246 9.21748 -17.273 -3.22398 -20.218 -0.735992 -5.5778 -93.9265 -43.2892 70.8956 -10.3402 8.96629 -61.0231 -3.71374 28.6459 0.187968 -11.1996 0.0885621 -6.60223 23.7922 0.00399541 0.644057 -7.84377 -0.281973 1.11262 
12.7516 93.5451 -4.39636 84.3326 -81.3612 79.4614 -155.749 29.5397 90.1608 -75.3875 9.12335 -4.9469 65.4674 4.78062 2.26475 10.6285 -11.2704 2.67896 162.482 39.4818 85.5523 -43.9672 -4.61782 10.0062 66.9619 -3.6762 -3.88092 13.662 3.84156 5.26153 -0.359298 9.44389 -90.5669 7.98051 -0.965136 -1.06353 -3.69053 -1.01101 -1.02003 -26.2232 -0.600928 -1.30439 -6.21053 -0.600928 -1.3044 88.8565 -25.071 -111.198 25.3445 -6.11557 -17.6134 6.49179 -21.2924 -6.23925 -28.3908 -1.91705 -1.60027 -94.6326 -42.7621 69.5987 -6.72583 7.882 -64.1102 -4.28164 36.4459 -1.22701 -0.0896011 0.0843001 -0.380464 29.9518 0.149336 3.20038 -6.44006 -1.16062 0.438731 
12.9148 92.195 -2.03214 41.9512 -81.6498 35.9331 -146.829 41.5193 86.1237 -68.5308 4.776 -11.1432 68.9428 6.7407 1.23224 13.7236 -9.51827 3.00273 158.053 46.4358 86.9255 -48.1859 -10.7349 12.264 69.1702 -5.66138 -4.43395 13.6523 3.47064 6.6287 0.160689 9.70301 -90.3779 7.46837 0.157234 -0.753213 -4.20279 0.123921 -0.759413 -26.7365 0.37633 -0.671139 -6.72391 0.376329 -0.671146 90.8475 -18.2217 -110.27 25.4559 -3.47856 -31.4747 4.47403 -24.7558 -7.2328 -32.6506 -2.79845 0.825115 -94.3192 -41.3358 69.618 -4.14774 7.58312 -67.1457 -3.80417 38.4878 -3.94385 9.66764 1.0649 6.57536 33.3342 0.144587 3.05121 -5.89133 -1.20374 1.01284 
13.6552 90.0853 0.229174 16.1398 -79.7721 10.3143 -147.087 50.1108 89.1806 -57.8714 4.11579 -14.7079 69.0073 6.34193 0.548945 12.7694 -10.8044 4.62488 150.608 52.5166 90.6444 -54.3146 -17.29 14.1577 69.4018 -6.4748 -4.37989 14.9161 2.56272 8.71 0.41797 10.0685 -90.3247 6.73839 0.696307 -0.66709 -4.93257 0.666277 -0.697092 -27.4686 0.864598 -0.426979 -7.45592 0.8646 -0.426975 91.2401 -15.1612 -110.967 19.433 -6.5475 -45.0844 8.66743 -24.8084 -2.59723 -31.9646 -2.98487 1.64267 -95.6677 -41.7819 67.6011 -6.37664 5.12218 -69.9817 -5.59108 45.182 -0.0118833 11.2554 1.4467 8.442 37.9507 0.465081 2.72058 -6.61144 -0.878707 0.826153 
15.2219 86.3723 2.50304 2.78739 -77.2902 -3.40394 -148.694 57.65 93.5095 -54.391 8.27018 -14.5604 65.1182 3.88938 0.607991 9.0579 -12.6557 3.55455 139.582 59.9616 97.1234 -64.2244 -25.1914 13.7685 70.2038 -7.95301 -5.09847 14.9913 2.16039 10.2032 0.559621 10.623 -90.2192 5.63031 1.02675 -0.457606 -6.04032 1.00562 -0.502356 -28.5787 1.11681 -0.127823 -8.56606 1.11681 -0.12783 90.8404 -15.3792 -111.866 15.5905 -6.27115 -55.3768 10.3139 -26.2407 -0.414323 -30.4918 -3.68801 4.80867 -94.2858 -37.2252 68.215 -7.7629 5.20785 -74.7799 -6.28587 53.1409 -0.014624 10.7024 1.61424 10.3482 47.1508 0.882908 3.40194 -8.95018 -1.08394 0.223149 
17.9785 80.5838 4.53378 -9.25595 -75.5497 -15.1805 -138.132 66.5269 88.7425 -65.2875 18.8408 -12.3058 62.3475 2.62722 2.66917 14.6164 -9.69491 4.69177 121.685 67.2527 111.139 -78.3737 -31.3693 10.1468 70.6506 -9.28498 -5.84096 15.6429 1.26913 13.1298 0.685632 10.7663 -90.0404 5.34145 1.35324 -0.107695 -6.32881 1.34719 -0.167167 -28.8694 1.32303 0.304067 -8.8567 1.32303 0.304064 86.7963 -20.6139 -118.158 10.4426 -8.01782 -54.2031 12.2745 -35.5273 -1.1837 -32.7897 -5.12038 7.92707 -95.4715 -39.8081 67.1958 -6.38083 5.23874 -74.5741 -7.71069 58.3193 -0.0167031 7.13082 1.05352 9.70496 52.2998 1.31473 2.57181 -11.1295 -0.318706 -0.390002 
21.2627 73.7707 5.66843 -15.9048 -73.9999 -21.0744 -107.431 74.1995 62.4028 -83.8263 22.6885 -6.86212 66.1054 5.52383 3.53821 18.4871 -8.43126 7.8601 91.6598 71.9155 138.526 -93.3459 -36.4807 4.5742 70.0364 -9.86072 -8.49087 16.2635 1.07555 13.3513 0.790141 11.1081 -90.0033 4.65732 1.57748 -0.026065 -7.01267 1.57481 -0.0954855 -29.5551 1.51237 0.449355 -9.54244 1.51236 0.449346 84.7328 -22.4685 -121.435 8.41674 -8.42703 -54.7515 13.5199 -40.2865 -0.460343 -36.3857 -6.99969 11.9195 -96.4882 -40.0478 65.6266 -6.30594 4.29501 -75.7102 -7.50946 58.7819 -0.016925 6.26846 1.18805 12.4369 57.9938 1.23291 2.47963 -12.5616 -0.362107 -1.50495 
24.4584 67.0988 6.19796 -21.0629 -73.0215 -25.4513 -67.4359 74.7353 24.4961 -99.6666 22.704 -0.954352 70.7626 9.90493 5.86652 22.4299 -6.54579 9.88414 61.789 71.9852 167.383 -106.44 -37.7326 -0.57024 70.7642 -11.2294 -9.99735 18.3456 0.764944 12.6472 0.911497 11.5166 -89.9628 3.83954 1.83612 0.0699217 -7.83011 1.83743 -0.0109743 -30.3748 1.73019 0.618702 -10.3621 1.73019 0.618702 83.9893 -23.2792 -122.456 6.14217 -7.93728 -55.506 10.4724 -40.3141 -2.52056 -31.2944 -5.84086 11.1178 -96.6031 -39.235 65.1161 -7.38698 2.9851 -77.1864 -6.49554 61.1458 -0.0181776 1.71738 0.456015 10.8472 62.8325 1.1448 2.53708 -14.0923 -0.519569 -2.09192 
